<?xml version="1.0" encoding="UTF-8"?>
<svg version="1.1" xmlns="http://www.w3.org/2000/svg" width="200" height="200">
<path d="M0 0 C0 8.08863823 -3.64518247 13.12490872 -9 19 C-11.84622218 21.45343852 -14.78462944 23.79882422 -17.87011719 25.94458008 C-19.80221677 27.312586 -19.80221677 27.312586 -22 30 C-22.34188271 33.05397936 -21.80953197 34.93623284 -21 38 C-16.3179176 43.69442454 -10.03508065 44.72714922 -3 46 C-1.71867187 46.26039062 -0.43734375 46.52078125 0.8828125 46.7890625 C5.62986036 47.33840074 8.83479389 45.74267342 13 43.625 C20.24811694 40.16018163 27.57112972 37.23178293 35.125 34.5 C50.28604357 28.94334014 66.70474188 22.43034561 78.52734375 11.1015625 C80 10 80 10 83 10 C82.29643285 16.097582 77.02507045 20.14116318 72.625 23.875 C60.64090191 33.06292356 46.77099731 38.29861811 32.75 43.5 C29.45115549 44.73438536 26.1548445 45.97538585 22.859375 47.21875 C21.65142273 47.67169434 21.65142273 47.67169434 20.41906738 48.13378906 C13.49689002 50.75263629 6.69106117 53.62247804 -0.07330322 56.62487793 C-2.02519001 57.47328699 -4.01030632 58.24450082 -6 59 C-6.99 58.505 -6.99 58.505 -8 58 C-6.35 56.35 -4.7 54.7 -3 53 C-6.43074854 51.97581465 -9.87041661 50.98535463 -13.3125 50 C-14.74819336 49.57074219 -14.74819336 49.57074219 -16.21289062 49.1328125 C-24.82487886 46.69709865 -33.53253394 45.33839305 -42 49 C-41.96519531 49.80824219 -41.93039063 50.61648437 -41.89453125 51.44921875 C-41.86746094 52.51785156 -41.84039062 53.58648437 -41.8125 54.6875 C-41.77769531 55.74324219 -41.74289063 56.79898438 -41.70703125 57.88671875 C-42.04430874 61.4708542 -42.72722334 63.21780788 -45 66 C-47.48046875 67.14453125 -47.48046875 67.14453125 -50.1875 67.8125 C-51.53908203 68.16248047 -51.53908203 68.16248047 -52.91796875 68.51953125 C-53.60503906 68.67808594 -54.29210937 68.83664063 -55 69 C-53.99682473 65.71688094 -53.43513282 64.28283633 -50.5 62.375 C-47.53648797 59.55966357 -47.57410432 58.50238072 -47.0625 54.5625 C-46.52450833 50.75595514 -46.17296037 48.46832174 -43.1875 45.9375 C-38.35614704 43.00079526 -34.86936276 41.73808764 -29.1875 41.875 C-28.21167969 41.89304688 -27.23585938 41.91109375 -26.23046875 41.9296875 C-25.12638672 41.96449219 -25.12638672 41.96449219 -24 42 C-24.495 41.236875 -24.99 40.47375 -25.5 39.6875 C-27.48597382 34.80531435 -27.92848331 30.20535527 -27 25 C-24.45285832 20.40679368 -21.17069522 17.04618806 -17.25 13.625 C-12.8423809 9.70374816 -8.64696159 5.68351361 -4.62109375 1.36328125 C-3 0 -3 0 0 0 Z " fill="#000000" transform="translate(82,21)"/>
<path d="M0 0 C0.99 0.33 1.98 0.66 3 1 C4.1328125 3.29296875 4.1328125 3.29296875 5.125 6.1875 C5.45757812 7.12980469 5.79015625 8.07210937 6.1328125 9.04296875 C11.64122779 27.82616863 7.36794883 48.77737601 -1 66 C-4.26745226 71.7916436 -7.91363716 77.64467311 -13 82 C-15.75 81.75 -15.75 81.75 -18 81 C-16.71689328 76.70822925 -15.06362514 73.22560193 -12.6875 69.4375 C-4.44329249 55.57146283 0.16468043 39.68798426 0.09765625 23.53515625 C0.09553383 22.51789711 0.09553383 22.51789711 0.09336853 21.48008728 C0.08782745 19.34084422 0.07528653 17.20171075 0.0625 15.0625 C0.05747736 13.60091298 0.0529158 12.13932431 0.04882812 10.67773438 C0.03787745 7.11845474 0.02065445 3.55923809 0 0 Z " fill="#000000" transform="translate(94,97)"/>
<path d="M0 0 C0.495 0.99 0.495 0.99 1 2 C-4.26782554 8.70450523 -13.9454136 10.66903809 -22 12 C-25.27696146 12.28092996 -28.52466528 12.33354316 -31.8125 12.3125 C-32.68326172 12.30976074 -33.55402344 12.30702148 -34.45117188 12.30419922 C-42.79568906 12.16946036 -50.5645607 10.95868296 -58 7 C-58 6.34 -58 5.68 -58 5 C-57.30664551 5.01571045 -56.61329102 5.0314209 -55.89892578 5.04760742 C-40.31478902 5.35290089 -25.32263806 5.30933054 -10.2578125 0.90625 C-6.70932219 -0.08086001 -3.66533691 -0.14960559 0 0 Z " fill="#000000" transform="translate(161,76)"/>
<path d="M0 0 C4.60583855 2.64730903 7.42182284 5.4450131 10.5 9.75 C11.26828125 10.80703125 12.0365625 11.8640625 12.828125 12.953125 C13.54484375 13.95859375 14.2615625 14.9640625 15 16 C18.37154218 20.70800935 21.36006052 24.45181098 26 28 C26 28.66 26 29.32 26 30 C25.0925 30.226875 24.185 30.45375 23.25 30.6875 C19.55111676 32.18127977 18.22094342 33.75400577 16 37 C14.515 36.505 14.515 36.505 13 36 C13.48578543 32.87709365 13.9986012 30.00419641 15 27 C14.49210937 26.45472656 13.98421875 25.90945312 13.4609375 25.34765625 C9.93009746 21.47960115 6.6766353 17.68343884 3.875 13.25 C0.20867798 7.61782168 -3.10906546 4.23339428 -9.875 2.6875 C-11.24695006 2.4407301 -12.62123202 2.20528323 -14 2 C-14 1.34 -14 0.68 -14 0 C-9.21270934 -2.77971716 -4.96234272 -1.87411958 0 0 Z " fill="#000000" transform="translate(53,86)"/>
<path d="M0 0 C-0.32508831 5.36395708 -3.21438903 8.49422886 -7 12 C-18.02380961 20.59731642 -33.25872383 24.23691855 -47 24 C-47.33 23.01 -47.66 22.02 -48 21 C-46.63681641 20.70609375 -46.63681641 20.70609375 -45.24609375 20.40625 C-30.94188668 17.00258227 -19.49209257 10.49022749 -7.8046875 1.6875 C-4.83898177 -0.09688005 -3.3865548 -0.3969588 0 0 Z " fill="#000000" transform="translate(173,47)"/>
<path d="M0 0 C-0.57184883 6.29033709 -4.0341629 10.28980988 -8.61328125 14.2734375 C-18.64130889 22.1033631 -30.88142774 29 -44 29 C-44 28.01 -44 27.02 -44 26 C-43.12859375 25.5875 -42.2571875 25.175 -41.359375 24.75 C-29.08817744 18.84254521 -18.30751239 11.40024135 -7.6171875 3.00390625 C-3.69395712 0 -3.69395712 0 0 0 Z " fill="#000000" transform="translate(172,35)"/>
<path d="M0 0 C-0.37341927 2.51110929 -0.74947314 3.75133811 -2.57421875 5.5625 C-16.34435733 14.92924861 -31.8596584 15.23059708 -48 14 C-48.99 13.67 -49.98 13.34 -51 13 C-50.67 11.68 -50.34 10.36 -50 9 C-48.43765625 8.96132812 -48.43765625 8.96132812 -46.84375 8.921875 C-32.95543089 8.43012296 -20.61206306 5.53767524 -7.55078125 0.734375 C-4.9069664 -0.02678456 -2.73576475 -0.13802056 0 0 Z " fill="#000000" transform="translate(167,64)"/>
<path d="M0 0 C0.66 0 1.32 0 2 0 C0.54274392 11.11157765 -6.54655559 19.89393865 -15 27 C-18.56162899 29.68145631 -21.50669937 31.84444785 -26 32.3125 C-26.99 32.1578125 -26.99 32.1578125 -28 32 C-28.33 30.35 -28.66 28.7 -29 27 C-28.3709375 26.50371094 -27.741875 26.00742188 -27.09375 25.49609375 C-18.61834768 18.76938137 -10.80862721 12.05752524 -3.67993164 3.91113281 C-2.49183251 2.5722012 -1.24988433 1.28144707 0 0 Z " fill="#000000" transform="translate(86,127)"/>
<path d="M0 0 C1.79498893 5.3849668 -0.83619225 10.62901279 -3.2578125 15.5625 C-7.42428804 22.84814029 -12.81350399 30.43206529 -20 35 C-22.75 34.6875 -22.75 34.6875 -25 34 C-25.8125 32.3125 -25.8125 32.3125 -26 30 C-23.9183463 27.51544558 -21.71534759 25.57724361 -19.19921875 23.546875 C-11.23531328 16.97146607 -5.64611918 8.55819416 0 0 Z " fill="#000000" transform="translate(88,138)"/>
<path d="M0 0 C5.51328285 -0.30072452 9.57256425 0.26304981 14.7265625 2.24609375 C20.12817438 4.03734992 25.73712244 4.25155015 31.375 4.5625 C32.11105469 4.60568359 32.84710938 4.64886719 33.60546875 4.69335938 C35.40348068 4.79843799 37.20171958 4.89962093 39 5 C33.97250642 10.33087681 29.42055871 11.0962526 22.3125 11.375 C14.65267325 11.23047497 6.91527238 9.78276 1.25 4.375 C0 2 0 2 0 0 Z " fill="#000000" transform="translate(94,87)"/>
<path d="M0 0 C0.99 0.33 1.98 0.66 3 1 C2.57802275 9.22855636 -2.78227111 15.12505179 -8.625 20.4375 C-12.8022931 24.06514927 -15.36178115 26 -21 26 C-20.51559353 21.53877271 -19.13119802 19.70638189 -15.875 16.6875 C-12.20166902 13.18352768 -8.81217946 9.58044048 -5.5078125 5.73046875 C-3.76065928 3.72531622 -1.91829882 1.84156687 0 0 Z " fill="#000000" transform="translate(85,29)"/>
<path d="M0 0 C-0.2863426 4.77237659 -1.03536712 8.057244 -4.34375 11.64453125 C-8.32047209 14.8990656 -12.96059789 16.8335182 -18.0625 17.25 C-18.701875 17.1675 -19.34125 17.085 -20 17 C-16.44692306 12.69890686 -12.74249194 8.58446278 -8.875 4.5625 C-8.04742187 3.69753906 -7.21984375 2.83257812 -6.3671875 1.94140625 C-4 0 -4 0 0 0 Z " fill="#000000" transform="translate(91,41)"/>
<path d="M0 0 C-0.30325898 3.33584881 -0.7580821 4.7473302 -3.109375 7.203125 C-3.98078125 7.87859375 -4.8521875 8.5540625 -5.75 9.25 C-7.04164062 10.27867187 -7.04164062 10.27867187 -8.359375 11.328125 C-11.00994422 13.00629604 -12.91350328 13.62251479 -16 14 C-16.33 13.01 -16.66 12.02 -17 11 C-13.47904313 5.07839072 -6.92418044 0 0 0 Z " fill="#000000" transform="translate(85,118)"/>
<path d="M0 0 C-1.14752979 4.46261586 -3.28168623 6.57068862 -6.98046875 9.0625 C-10.4018052 10.65074129 -13.28444373 10.32592599 -17 10 C-16.8984375 7.7109375 -16.8984375 7.7109375 -16 5 C-13.1640625 3.1640625 -13.1640625 3.1640625 -9.625 1.625 C-8.46226563 1.10164063 -7.29953125 0.57828125 -6.1015625 0.0390625 C-3 -1 -3 -1 0 0 Z " fill="#000000" transform="translate(94,53)"/>
<path d="M0 0 C1.98 0.495 1.98 0.495 4 1 C3.67 2.32 3.34 3.64 3 5 C1.68 4.67 0.36 4.34 -1 4 C-0.67 2.68 -0.34 1.36 0 0 Z " fill="#000000" transform="translate(46,74)"/>
</svg>
