<svg xmlns="http://www.w3.org/2000/svg" viewBox="0 0 257.22222 268.74011"><defs><style>.a{fill:none;stroke:#0410F1;stroke-linecap:round;stroke-linejoin:round;stroke-width:15px;}</style></defs><title>Asset 43</title><path class="a" d="M181.26056,134.37006a52.64945,52.64945,0,1,1-52.64945-52.64945A52.64945,52.64945,0,0,1,181.26056,134.37006ZM46.6539,82.31136,14.67735,89.10818A9.05185,9.05185,0,0,0,9.8325,104.01909l21.8745,24.2941a9.05184,9.05184,0,0,1,0,12.11373L9.8325,164.721a9.05185,9.05185,0,0,0,4.84485,14.91091l31.97655,6.79682a9.05185,9.05185,0,0,1,7.12028,9.80022l-3.41713,32.51184a9.05184,9.05184,0,0,0,12.684,9.21545l29.86465-13.2966a9.05185,9.05185,0,0,1,11.52085,3.74335L120.772,256.71419a9.05185,9.05185,0,0,0,15.67826,0L152.7957,228.403a9.05186,9.05186,0,0,1,11.52085-3.74335l29.86465,13.2966a9.05185,9.05185,0,0,0,12.684-9.21545L203.448,196.229a9.05185,9.05185,0,0,1,7.12028-9.80022l31.97655-6.79682a9.05185,9.05185,0,0,0,4.84485-14.91091l-21.8745-24.2941a9.05184,9.05184,0,0,1,0-12.11373l21.8745-24.2941a9.05185,9.05185,0,0,0-4.84485-14.91091l-31.97655-6.79682a9.05185,9.05185,0,0,1-7.12028-9.80022l3.41714-32.51184a9.05185,9.05185,0,0,0-12.684-9.21545l-29.86465,13.2966A9.05186,9.05186,0,0,1,152.7957,40.3371L136.45024,12.02592a9.05185,9.05185,0,0,0-15.67826,0L104.42652,40.3371a9.05185,9.05185,0,0,1-11.52085,3.74335L63.041,30.78385a9.05184,9.05184,0,0,0-12.684,9.21545l3.41713,32.51184A9.05185,9.05185,0,0,1,46.6539,82.31136Z"/></svg>