<svg width="299" height="299" viewBox="0 0 299 299" fill="none" xmlns="http://www.w3.org/2000/svg">
<path d="M248 188.884C241.002 204.038 230.469 217.271 217.296 227.46C204.122 237.648 188.697 244.49 172.33 247.406C155.962 250.322 139.137 249.225 123.282 244.209C107.427 239.192 93.01 230.404 81.2562 218.591C69.5024 206.777 60.7586 192.288 55.7672 176.352C50.7759 160.416 49.6844 143.505 52.5854 127.055C55.4865 110.605 62.2944 95.1012 72.4311 81.8606C82.5678 68.6199 95.7338 58.0334 110.811 51C101.831 70.298 98.981 91.9075 102.65 112.89C106.318 133.873 116.327 153.212 131.316 168.276C146.304 183.341 165.545 193.401 186.422 197.088C207.299 200.775 228.8 197.911 248 188.884Z" stroke="currentColor" stroke-width="15" stroke-linecap="round" stroke-linejoin="round"/>
</svg>
