<svg width="300" height="300" viewBox="0 0 300 300" fill="none" xmlns="http://www.w3.org/2000/svg">
<path d="M149.5 55.973V27M83.3665 83.3664L62.8794 62.8794M55.973 149.5H27M83.3664 215.634L62.8794 236.121M149.5 243.027V272M215.634 215.634L236.121 236.121M243.027 149.5H272M236.121 62.8794L215.634 83.3664M208.209 149.5C208.209 161.111 204.765 172.462 198.314 182.117C191.863 191.771 182.694 199.296 171.967 203.74C161.239 208.183 149.435 209.346 138.047 207.08C126.658 204.815 116.197 199.224 107.987 191.013C99.7763 182.803 94.1848 172.342 91.9196 160.953C89.6543 149.565 90.8169 137.761 95.2604 127.033C99.7039 116.306 107.229 107.137 116.883 100.686C126.538 94.2347 137.889 90.7915 149.5 90.7915C157.21 90.7915 164.844 92.31 171.967 95.2604C179.09 98.2108 185.562 102.535 191.013 107.987C196.465 113.438 200.789 119.91 203.74 127.033C206.69 134.156 208.209 141.79 208.209 149.5Z" stroke="currentColor" stroke-width="15" stroke-linecap="round" stroke-linejoin="round"/>
</svg>
