<svg width="300" height="300" viewBox="0 0 300 300" fill="none" xmlns="http://www.w3.org/2000/svg">
<path d="M172.332 78.4187C179.773 73.6356 188.121 70.805 196.724 70.1481C205.327 69.4912 213.953 71.0258 221.926 74.632C229.899 78.2381 237.003 83.8182 242.684 90.9359C248.365 98.0536 252.469 106.516 254.674 115.662C263.68 115.883 272.265 119.893 278.651 126.862C285.038 133.832 288.738 143.228 288.987 153.106C289.235 162.984 286.013 172.59 279.986 179.935C273.959 187.28 265.589 191.803 256.608 192.568M50.3604 141.455C53.5538 128.21 60.2034 116.277 69.4927 107.12C78.782 97.9625 90.3067 91.9802 102.652 89.9072C114.997 87.8342 127.626 89.7607 138.987 95.4501C150.348 101.14 159.947 110.344 166.606 121.935C168.353 121.635 170.113 121.441 171.878 121.352C185.009 121.359 197.599 127.085 206.881 137.272C216.164 147.459 221.378 161.273 221.378 175.676C221.378 190.079 216.164 203.893 206.881 214.08C197.599 224.267 185.009 229.993 171.878 230H48.1427C37.8312 229.076 28.2349 223.852 21.3285 215.402C14.4221 206.952 10.7311 195.92 11.0153 184.575C11.2994 173.23 15.537 162.437 22.8559 154.416C30.1748 146.394 40.0183 141.756 50.3604 141.455ZM50.3604 141.455C60.3106 141.417 69.9562 145.217 77.6107 152.191M166.609 121.965C158.45 122.936 150.643 126.135 143.902 131.269" stroke="currentColor" stroke-width="15" stroke-linecap="round" stroke-linejoin="round"/>
</svg>
