<svg xmlns="http://www.w3.org/2000/svg" viewBox="0 0 289.443 158.99195"><defs><style>.a{fill:none;stroke:currentColor;stroke-linecap:round;stroke-linejoin:round;stroke-width:15px;}</style></defs><title>Asset 44</title><path class="a" d="M166.76751,15.07641a55.20966,55.20966,0,0,1,81.28831,33.517,34.66244,34.66244,0,0,1,1.90936,69.2121m-83.6456-64.09129a47.99226,47.99226,0,0,0-5.20447.5243A63.30648,63.30648,0,0,0,46.3562,71.80568,39.91641,39.91641,0,0,0,44.16687,151.492H166.31958a48.88886,48.88886,0,0,0,0-97.77771ZM73.25788,81.46789A41.87828,41.87828,0,0,0,46.3562,71.80568M161.118,54.26551a48.48094,48.48094,0,0,0-22.41726,8.37363"/></svg>