<svg width="300" height="300" viewBox="0 0 300 300" fill="none" xmlns="http://www.w3.org/2000/svg">
<path d="M71.3345 129.083C75.1756 114.136 83.1716 100.671 94.3437 90.3377C105.515 80.0046 119.375 73.2532 134.221 70.914C149.067 68.5747 164.254 70.7492 177.917 77.1689C191.58 83.5897 203.123 93.9758 211.131 107.056C213.232 106.717 215.349 106.498 217.472 106.398C233.263 106.406 248.403 112.867 259.566 124.362C270.73 135.858 277 151.446 277 167.699C277 183.952 270.73 199.54 259.566 211.035C248.403 222.531 233.263 228.992 217.472 229H68.6683C56.2671 227.957 44.727 222.062 36.4219 212.527C28.1156 202.992 23.6768 190.543 24.0183 177.741C24.3599 164.939 29.4565 152.759 38.2583 143.708C47.0601 134.656 58.8972 129.422 71.3345 129.083ZM71.3345 129.083C83.3015 129.04 94.9005 133.328 104.106 141.197M211.135 107.089C201.323 108.185 191.934 111.795 183.828 117.588" stroke="currentColor" stroke-width="15" stroke-linecap="round" stroke-linejoin="round"/>
</svg>
