<svg xmlns="http://www.w3.org/2000/svg" viewBox="0 0 222.71563 246.67451"><defs><style>.a{fill:none;stroke:currentColor;stroke-linecap:round;stroke-linejoin:round;stroke-width:15px;}</style></defs><title>Asset 46</title><path class="a" d="M116.4167,167.63969,106.29893,193.884M49.19448,167.63969,39.07671,193.884m28.59694,19.0462L57.55589,239.17451m58.86081-71.53482L106.29893,193.884m28.59694,19.0462-10.11776,26.24431m58.86081-71.53482L173.52116,193.884M166.32532,36.52876a47.99576,47.99576,0,0,0-5.20466.52431A63.30878,63.30878,0,0,0,46.3576,54.62084,39.91786,39.91786,0,0,0,44.16819,134.31H166.32532a48.89062,48.89062,0,0,0,0-97.78124ZM73.26026,64.28341A41.87981,41.87981,0,0,0,46.3576,54.62084M161.12353,37.08A48.48279,48.48279,0,0,0,138.70547,45.454"/></svg>