<svg width="300" height="300" viewBox="0 0 300 300" fill="none" xmlns="http://www.w3.org/2000/svg">
<path d="M84.8578 81.1209C88.0105 69.201 94.5752 58.4612 103.746 50.2199C112.917 41.9787 124.295 36.5947 136.482 34.729C148.67 32.8633 161.137 34.5971 172.354 39.7176C183.57 44.838 193.047 53.1222 199.621 63.5531C201.345 63.2839 203.082 63.1088 204.826 63.0288C217.792 63.0288 230.228 68.1798 239.396 77.3485C248.565 86.5173 253.716 98.9528 253.716 111.919C253.716 124.886 248.565 137.322 239.396 146.49C230.228 155.659 217.792 160.81 204.826 160.81H82.6684C72.4886 159.979 63.0147 155.277 56.1965 147.672C49.3783 140.067 45.7346 130.138 46.0151 119.928C46.2956 109.718 50.479 100.005 57.7045 92.7857C64.93 85.5668 74.6477 81.3921 84.8578 81.1209ZM84.8578 81.1209C94.681 81.0869 104.204 84.5071 111.76 90.7834M199.624 63.58C191.569 64.4543 183.861 67.3333 177.206 71.954" stroke="currentColor" stroke-width="15" stroke-linecap="round" stroke-linejoin="round"/>
<line x1="60" y1="200" x2="240" y2="200" stroke="currentColor" stroke-width="15" stroke-linecap="round"/>
<line x1="80" y1="235" x2="220" y2="235" stroke="currentColor" stroke-width="15" stroke-linecap="round"/>
<line x1="100" y1="270" x2="200" y2="270" stroke="currentColor" stroke-width="15" stroke-linecap="round"/>
</svg>
