<svg xmlns="http://www.w3.org/2000/svg" viewBox="0 0 295.30093 224.3186"><defs><style>.a{fill:none;stroke:currentColor;stroke-linecap:round;stroke-linejoin:round;stroke-width:15px;}</style></defs><title>Asset 49</title><path class="a" d="M152.0746,71.658a52.09827,52.09827,0,0,1,79.12979,44.52538,52.38533,52.38533,0,0,1-.85926,9.47256M179.11754,33.2052V7.5M102.26678,39.33263,120.4431,57.509M237.792,174.85783l18.17632,18.17632m6.12743-76.85076h25.7052M237.792,57.509,255.9683,39.33263m-89.64872,79.70826a47.99226,47.99226,0,0,0-5.20447.52429A63.30649,63.30649,0,0,0,46.3562,137.13232a39.91642,39.91642,0,0,0-2.18933,79.68628H166.31958a48.88886,48.88886,0,0,0,0-97.77771Zm-93.0617,27.75365a41.87829,41.87829,0,0,0-26.90168-9.66222M161.118,119.59215a48.48116,48.48116,0,0,0-22.41726,8.37363"/></svg>