<svg width="300" height="300" viewBox="0 0 300 300" fill="none" xmlns="http://www.w3.org/2000/svg">
<path d="M154.293 110.221C161.959 105.571 170.724 103.043 179.691 102.895C188.657 102.747 197.501 104.985 205.316 109.38C213.131 113.775 219.636 120.168 224.163 127.904C228.69 135.64 231.078 144.441 231.08 153.403C231.081 156.484 230.802 159.559 230.246 162.589M180.535 72.9292V48M105.96 78.8717L123.598 96.4994M237.472 210.306L255.11 227.934M261.056 153.403H286M237.472 96.4994L255.11 78.8717M51.7056 173.719C54.7648 162.16 61.1349 151.744 70.0338 143.752C78.9327 135.76 89.9731 130.539 101.799 128.729C113.626 126.92 125.724 128.601 136.607 133.567C147.491 138.533 156.687 146.567 163.066 156.682C164.739 156.421 166.425 156.251 168.116 156.174C180.695 156.18 192.756 161.177 201.648 170.068C210.541 178.959 215.536 191.016 215.536 203.587C215.536 216.158 210.541 228.214 201.648 237.105C192.756 245.997 180.695 250.994 168.116 251H49.5811C39.7031 250.194 30.5102 245.634 23.8942 238.259C17.2782 230.884 13.7424 221.255 14.0146 211.354C14.2868 201.453 18.3462 192.032 25.3574 185.031C32.3687 178.031 41.7982 173.982 51.7056 173.719ZM51.7056 173.719C61.2376 173.686 70.4779 177.003 77.8106 183.09M163.069 156.708C155.253 157.556 147.774 160.348 141.315 164.829" stroke="currentColor" stroke-width="15" stroke-linecap="round" stroke-linejoin="round"/>
</svg>
