<svg width="300" height="300" viewBox="0 0 300 300" fill="none" xmlns="http://www.w3.org/2000/svg">
<path d="M120.298 86.3647C105.722 87.6548 91.9005 93.4191 80.727 102.868C69.5534 112.318 61.5738 124.99 57.881 139.149M57.881 139.149C46.4542 139.504 35.5981 144.226 27.5469 152.342C19.4957 160.459 14.862 171.353 14.5995 182.782C14.3369 194.212 18.4654 205.307 26.1353 213.784C33.8052 222.262 44.433 227.477 55.8315 228.357L192.562 227.742C206.983 227.696 220.798 221.942 230.988 211.738M57.881 139.149C68.876 139.062 79.5519 142.842 88.0419 149.829M286.36 143.041C281.761 153.068 274.811 161.836 266.098 168.603C257.386 175.369 247.17 179.933 236.317 181.907C225.464 183.881 214.295 183.207 203.758 179.942C193.221 176.677 183.628 170.918 175.793 163.153C167.958 155.388 162.112 145.847 158.753 135.34C155.393 124.833 154.618 113.67 156.495 102.8C158.371 91.9299 162.843 81.6729 169.531 72.9002C176.218 64.1276 184.924 57.0983 194.909 52.4094C189.006 65.1781 187.18 79.4547 189.676 93.2982C192.173 107.142 198.873 119.88 208.865 129.782C218.856 139.684 231.654 146.269 245.52 148.641C259.385 151.013 273.645 149.058 286.36 143.041Z" stroke="currentColor" stroke-width="15" stroke-linecap="round" stroke-linejoin="round"/>
</svg>
