<svg xmlns="http://www.w3.org/2000/svg" viewBox="0 0 222.70813 251.15994"><defs><style>.a{fill:none;stroke:currentColor;stroke-linecap:round;stroke-linejoin:round;stroke-width:15px;}</style></defs><title>Asset 47</title><path class="a" d="M49.19073,167.6374,19.88234,243.65994M116.413,167.6374,87.10456,243.65994m96.53061-76.02254-29.30838,76.02254M166.31958,36.52771a47.99226,47.99226,0,0,0-5.20447.52429A63.30649,63.30649,0,0,0,46.3562,54.61914a39.91642,39.91642,0,0,0-2.18933,79.68628H166.31958a48.88886,48.88886,0,0,0,0-97.77771ZM73.25788,64.28136A41.87829,41.87829,0,0,0,46.3562,54.61914M161.118,37.079a48.48106,48.48106,0,0,0-22.41726,8.37364"/></svg>