<svg xmlns="http://www.w3.org/2000/svg" viewBox="0 0 228.33333 229.50418"><defs><style>.a{fill:none;stroke:currentColor;stroke-linecap:round;stroke-linejoin:round;stroke-width:15px;}</style></defs><title>Asset 22</title><path class="a" d="M7.5,114.16667a106.66667,106.66667,0,1,1,213.33333,0m-66.84444,0C153.98889,55.25629,136.15987,7.5,114.16667,7.5S74.34444,55.25629,74.34444,114.16667m79.64445,0c0-8.93474-17.829-22.04445-39.82222-22.04445s-39.82223,13.10971-39.82223,22.04445m146.48889,0c0-8.93474-14.98436-22.04445-33.4685-22.04445s-33.46851,13.10971-33.46851,22.04445m-79.45931,0c0-8.93474-14.98436-22.04445-33.46851-22.04445S7.5,105.23193,7.5,114.16667M114.16667,92.12222v99.21529a30.66667,30.66667,0,1,0,61.33333,0"/></svg>