<svg width="300" height="300" viewBox="0 0 300 300" fill="none" xmlns="http://www.w3.org/2000/svg">
<path d="M149.667 127.655C171.66 127.655 189.489 140.765 189.489 149.699C189.489 90.789 171.66 43.0327 149.667 43.0327C127.673 43.0327 109.844 90.789 109.844 149.699C109.844 140.765 127.673 127.655 149.667 127.655ZM149.667 127.655V226.87C149.664 230.899 150.456 234.888 151.996 238.611C153.536 242.334 155.795 245.717 158.643 248.566C161.49 251.416 164.872 253.676 168.594 255.218C172.315 256.761 176.305 257.554 180.333 257.554C184.362 257.554 188.351 256.761 192.073 255.218C195.795 253.676 199.176 251.416 202.024 248.566C204.872 245.717 207.131 242.334 208.671 238.611C210.211 234.888 211.002 230.899 211 226.87M189.396 149.699C189.396 140.765 204.381 127.655 222.865 127.655C241.349 127.655 256.333 140.765 256.333 149.699C256.338 135.689 253.582 121.815 248.223 108.87C242.865 95.9246 235.008 84.1619 225.103 74.2535C215.198 64.3451 203.437 56.4852 190.494 51.1226C177.55 45.7601 163.677 43 149.667 43C135.656 43 121.783 45.7601 108.84 51.1226C95.896 56.4852 84.1357 64.3451 74.2304 74.2535C64.3251 84.1619 56.4687 95.9246 51.1101 108.87C45.7516 121.815 42.9957 135.689 43 149.699C43 140.765 57.9844 127.655 76.4685 127.655C94.9527 127.655 109.937 140.765 109.937 149.699" stroke="currentColor" stroke-width="15" stroke-linecap="round" stroke-linejoin="round"/>
</svg>
